PathFileType	4	(X/Y/Z)	C:/Users/opensim2020/Desktop/walking_exp_matlab/subject03_walking13_straight_03.trc																																																																																																																																								
DataRate	CameraRate	NumFrames	NumMarkers	Units	OrigDataRate	OrigDataStartFrame	OrigNumFrames																																																																																																																																				
100	100	8	46	mm	100	1757	209																																																																																																																																				
Frame#	Time	LFHD			RFHD			LBHD			RBHD			C7			T10			CLAV			STRN			RBAK			LSHO			LUPA			LELB			LFRM			LWRA			LWRB			LFIN			RSHO			RUPA			RELB			RFRM			RWRA			RWRB			RFIN			LASI			RASI			LPSI			RPSI			LTHI			LKNE			LTIB			LANK			LHEE			LTOE			RTHI			RKNE			RTIB			RANK			RHEE			RTOE			*39			*40			*41			*42			*43			*44			*45		
		X1	Y1	Z1	X2	Y2	Z2	X3	Y3	Z3	X4	Y4	Z4	X5	Y5	Z5	X6	Y6	Z6	X7	Y7	Z7	X8	Y8	Z8	X9	Y9	Z9	X10	Y10	Z10	X11	Y11	Z11	X12	Y12	Z12	X13	Y13	Z13	X14	Y14	Z14	X15	Y15	Z15	X16	Y16	Z16	X17	Y17	Z17	X18	Y18	Z18	X19	Y19	Z19	X20	Y20	Z20	X21	Y21	Z21	X22	Y22	Z22	X23	Y23	Z23	X24	Y24	Z24	X25	Y25	Z25	X26	Y26	Z26	X27	Y27	Z27	X28	Y28	Z28	X29	Y29	Z29	X30	Y30	Z30	X31	Y31	Z31	X32	Y32	Z32	X33	Y33	Z33	X34	Y34	Z34	X35	Y35	Z35	X36	Y36	Z36	X37	Y37	Z37	X38	Y38	Z38	X39	Y39	Z39	X40	Y40	Z40	X41	Y41	Z41	X42	Y42	Z42	X43	Y43	Z43	X44	Y44	Z44	X45	Y45	Z45	X46	Y46	Z46
																																																																																																																																											
131	1.3	422.6778	1631.96729	-1032.01489	401.72693	1627.76904	-900.67889	303.29813	1572.04688	-1049.80396	287.63434	1567.93982	-920.33313	280.30197	1414.48364	-985.2403	250.80374	1103.67126	-985.5553	403.71298	1340.78516	-991.48511	449.45618	1176.09351	-999.15094	238.24004	1242.06042	-883.31873	344.65805	1377.50195	-1144.32996	322.50342	1179.21106	-1212.68274	328.30243	1055.43164	-1221.95776	358.64313	928.43317	-1219.65308	386.07907	813.44861	-1187.64551	356.98712	814.33374	-1234.88562	381.02606	734.5379	-1225.88525	370.2099	1365.56238	-829.58069	396.02921	1148.01733	-750.69354	426.32224	1039.67908	-735.3562	467.11423	908.96033	-734.53027	508.27072	818.72131	-774.22314	485.69559	810.54443	-725.57941	519.06268	744.34607	-738.12976	417.2941	938.79382	-1103.52209	417.11029	942.12756	-866.86676	255.62454	958.28479	-1054.5166	257.22861	975.59534	-905.29346	442.9552	646.12616	-1153.68677	508.58417	481.00583	-1121.18103	466.60434	285.56473	-1121.05957	452.00867	76.38553	-1081.17505	410.76431	41.64484	-1041.72534	596.01422	41.30051	-1060.6438	333.4371	647.45728	-831.98444	318.45032	469.8855	-872.24866	243.33054	291.09927	-873.3501	182.50166	83.71824	-927.92926	133.39359	60.07215	-977.69403	319.06189	30.30487	-952.21735	325.87909	1675.6615	-993.89905	NaN	NaN	NaN	NaN	NaN	NaN	NaN	NaN	NaN	NaN	NaN	NaN	NaN	NaN	NaN	NaN	NaN	NaN
132	1.31	436.04779	1630.24329	-1032.50525	415.10037	1626.55664	-901.1004	316.59396	1570.32068	-1050.06177	300.94879	1566.65991	-920.58282	293.48776	1413.00879	-985.33392	263.92224	1102.10486	-986.33344	416.94196	1339.17126	-991.13245	462.55566	1174.48816	-998.23566	251.33467	1240.43848	-883.51099	358.74377	1375.55884	-1144.37268	334.73584	1176.89294	-1212.14075	338.6557	1053.22375	-1221.74866	364.33713	925.15198	-1220.05615	386.59723	808.76953	-1188.86658	358.24084	811.26746	-1236.57935	378.44202	730.29437	-1227.71948	382.92734	1364.15662	-829.33264	411.28622	1147.67493	-748.78729	444.1636	1040.2655	-733.1543	489.36609	911.04736	-732.79266	533.98822	822.73486	-772.72357	511.37686	813.25275	-724.38177	547.31293	748.539	-737.13177	432.12338	937.26526	-1102.49768	428.52399	940.37622	-865.87341	269.68271	956.89429	-1055.82544	269.19678	973.91766	-906.62445	457.93707	644.93384	-1153.43787	523.23199	480.07144	-1119.90503	492.854	283.23886	-1120.61548	492.82239	73.04774	-1081.91528	454.11688	36.64134	-1042.2124	639.33704	43.88943	-1059.91797	341.01941	646.67255	-832.00793	324.03851	469.19781	-872.18781	246.40137	291.4129	-873.84497	183.0071	84.79462	-928.61877	133.93785	61.60571	-978.69653	319.35443	30.37971	-951.92102	339.22861	1674.17468	-994.62988	NaN	NaN	NaN	NaN	NaN	NaN	NaN	NaN	NaN	NaN	NaN	NaN	NaN	NaN	NaN	NaN	NaN	NaN
133	1.32	449.39328	1628.34729	-1032.95789	428.41721	1625.12561	-901.54578	329.98703	1568.36548	-1050.328	314.21887	1565.1991	-920.87646	306.76501	1411.37476	-985.42639	277.16849	1100.34509	-987.24878	430.21698	1337.33508	-990.72565	475.77304	1172.68982	-997.30157	264.36649	1238.67004	-883.70807	372.97012	1373.3728	-1144.39966	347.29535	1174.56152	-1212.0249	348.93033	1050.87219	-1221.62268	370.17099	921.87592	-1220.49683	387.40405	804.66443	-1190.11194	359.77475	808.50934	-1238.28491	375.90375	726.32977	-1229.37231	395.70953	1362.48438	-829.12079	426.43149	1147.00488	-747.06622	461.81696	1040.58447	-731.01904	511.4559	913.00146	-731.04785	559.26062	826.71783	-771.38202	536.74591	815.96857	-723.38599	574.97931	752.86432	-736.42065	447.14236	935.46228	-1101.45825	440.22263	938.56165	-865.00897	283.74597	955.20587	-1057.27588	281.1716	971.96283	-908.05658	472.09915	643.02075	-1153.0426	537.5343	478.60983	-1118.49377	518.03632	281.40204	-1120.0708	532.52307	71.26916	-1082.68457	496.05005	33.53273	-1042.92468	681.1142	47.81754	-1059.46924	349.01154	645.76025	-832.05426	330.06461	468.37717	-872.38068	249.76419	291.70264	-874.32294	183.70985	85.9047	-929.56335	134.60316	63.19443	-979.82098	319.43787	30.32856	-952.01563	352.5296	1672.39734	-995.20172	NaN	NaN	NaN	NaN	NaN	NaN	NaN	NaN	NaN	NaN	NaN	NaN	NaN	NaN	NaN	NaN	NaN	NaN
134	1.33	462.72818	1626.30261	-1033.42114	441.77237	1623.53699	-901.98822	343.33041	1566.15747	-1050.52515	327.63309	1563.5188	-921.0498	320.20459	1409.46191	-985.6153	290.45752	1098.46912	-988.22589	443.59555	1335.33777	-990.30518	489.00922	1170.63232	-996.30457	277.34283	1236.75647	-883.97729	387.39096	1371.00757	-1144.48425	359.979	1172.06091	-1211.85986	359.17831	1048.43909	-1221.54871	376.00665	918.74524	-1221.0343	388.18549	800.60864	-1191.13574	361.59659	805.97876	-1239.92798	373.61328	722.87524	-1231.0199	408.51843	1360.57166	-828.91046	441.53226	1146.17273	-745.6189	479.28714	1040.73962	-728.99036	533.27295	914.92755	-729.6134	584.12946	830.81909	-770.24963	561.79602	818.79614	-722.49109	602.95831	757.57117	-735.60864	462.24207	933.36365	-1100.42151	451.21304	936.25201	-863.69421	297.9064	953.27039	-1058.88855	293.22116	969.75256	-909.59277	485.43454	640.45032	-1152.69385	551.29962	476.4122	-1116.79553	542.01862	280.04688	-1119.61694	570.01398	71.09933	-1083.79602	536.04651	31.7699	-1044.28186	720.26392	53.08916	-1059.49768	357.42151	644.66669	-832.17188	336.47922	467.43231	-872.3064	253.39418	291.95282	-874.91992	184.35777	87.11365	-930.35461	135.02815	64.98746	-980.71356	319.54205	30.27791	-952.11725	365.82394	1670.4967	-996.00238	NaN	NaN	NaN	NaN	NaN	NaN	NaN	NaN	NaN	NaN	NaN	NaN	NaN	NaN	NaN	NaN	NaN	NaN
135	1.34	476.05652	1624.17688	-1033.80847	455.17493	1621.81567	-902.40643	356.75858	1563.89587	-1050.7854	341.05246	1561.54675	-921.2276	333.715	1407.35999	-985.83881	303.55707	1096.33923	-989.38336	457.04242	1333.16321	-989.85583	502.36453	1168.47839	-995.31036	290.00574	1234.74084	-884.20416	401.99762	1368.47009	-1144.52759	372.82892	1169.52161	-1211.75342	369.50534	1046.02893	-1221.52026	381.97806	915.7818	-1221.57861	389.24518	796.9632	-1192.21338	363.74426	803.68036	-1241.52673	371.6344	719.95172	-1232.64844	421.32632	1358.51599	-828.68079	456.47067	1145.16772	-744.05042	496.4061	1040.69824	-727.08051	554.75745	916.8363	-728.25427	608.39612	834.97577	-769.25909	586.1922	821.69006	-721.75018	629.88525	762.48242	-735.01617	477.40536	931.08527	-1099.41235	462.65964	933.94934	-862.62775	311.59799	951.50531	-1060.37732	305.27686	967.33148	-911.32837	497.94806	637.22235	-1152.49365	564.88318	474.26947	-1114.54797	565.19775	279.20215	-1119.00244	606.24475	71.43851	-1085.67334	573.96002	30.53905	-1046.37207	756.97357	60.05114	-1060.10583	366.06442	643.44891	-832.36761	343.26569	466.39154	-872.50189	257.43826	292.12042	-875.44281	185.06409	88.26877	-931.16608	135.82272	66.84681	-981.72052	319.64346	30.1698	-952.19885	379.10056	1668.38391	-996.6167	NaN	NaN	NaN	NaN	NaN	NaN	NaN	NaN	NaN	NaN	NaN	NaN	NaN	NaN	NaN	NaN	NaN	NaN
136	1.35	489.44641	1621.93738	-1034.25	468.52084	1619.97192	-902.84601	370.17841	1561.39294	-1051.00293	354.46701	1559.53748	-921.47131	347.35016	1405.22046	-986.19159	317.14828	1094.03772	-990.62347	470.58957	1330.87036	-989.38599	515.74963	1166.04358	-994.17889	303.12775	1232.64502	-884.64539	416.69016	1365.90588	-1144.59302	385.79248	1166.9989	-1211.58911	379.95313	1043.67188	-1221.62061	388.25821	913.05505	-1222.13574	390.60464	793.73999	-1193.28931	366.28519	801.72656	-1243.1366	370.03781	717.51276	-1234.31079	434.21481	1356.39526	-828.52112	471.28912	1144.09814	-742.77283	513.17859	1040.55151	-725.31262	575.36139	918.74683	-726.84161	631.95978	839.28345	-768.35431	610.10242	824.7229	-721.14832	656.33685	767.73468	-734.45532	492.51419	928.72595	-1098.50293	474.47198	931.57611	-861.75836	326.15924	949.61285	-1061.98596	317.57675	964.84167	-913.14587	509.98322	633.45361	-1152.92163	578.36566	471.82544	-1112.23328	587.50629	278.83377	-1118.49023	639.27533	72.96407	-1087.42163	608.96344	30.07838	-1048.95068	790.72485	68.12508	-1061.37988	375.09177	642.17963	-832.58856	350.3938	465.27487	-872.70862	261.72202	292.39938	-875.91223	185.98184	89.75388	-931.87439	136.5081	68.99693	-982.58911	319.81317	30.22453	-952.04156	392.39001	1666.09741	-997.04327	NaN	NaN	NaN	NaN	NaN	NaN	NaN	NaN	NaN	NaN	NaN	NaN	NaN	NaN	NaN	NaN	NaN	NaN
137	1.36	502.82016	1619.64954	-1034.65088	481.86844	1618.08777	-903.20007	383.62805	1558.86267	-1051.19788	367.96051	1557.3374	-921.66803	360.99246	1403.05115	-986.37109	331.02383	1091.70618	-991.78461	484.29184	1328.55249	-988.93048	529.38037	1163.69482	-993.15222	316.12079	1230.47571	-885.25299	431.50436	1363.33679	-1144.59778	398.99695	1164.50842	-1211.51831	390.60959	1041.37891	-1221.82788	394.99835	910.50446	-1222.82544	392.48776	790.95306	-1194.40942	369.35089	800.15668	-1244.69434	368.82727	715.6106	-1235.88159	447.10303	1354.25061	-828.37183	485.9743	1142.99365	-741.64307	529.57635	1040.3551	-723.72925	595.38287	920.56708	-725.72815	654.83929	843.65973	-767.50024	633.13184	827.84027	-720.73096	681.91687	773.18823	-733.81201	507.5896	926.29395	-1097.63477	486.93845	929.43256	-861.26074	340.91049	947.22247	-1063.97388	330.13318	962.29346	-915.12488	521.65839	629.362	-1153.9292	592.08752	469.36465	-1110.11011	609.23883	278.8692	-1117.98401	669.6521	75.18072	-1088.38123	641.03546	30.38893	-1050.77002	821.60852	76.35669	-1063.01978	384.4245	640.87213	-832.80994	357.75275	464.12274	-872.88947	266.17078	292.62915	-876.27008	186.82353	91.50137	-932.22205	137.24342	71.35012	-983.12158	319.9061	30.15679	-952.10175	405.66733	1663.84314	-997.6969	NaN	NaN	NaN	NaN	NaN	NaN	NaN	NaN	NaN	NaN	NaN	NaN	NaN	NaN	NaN	NaN	NaN	NaN
138	1.37	516.16705	1617.2749	-1034.93689	495.29898	1616.20349	-903.57831	397.12988	1556.3064	-1051.39185	381.42337	1555.17078	-921.86603	374.78958	1400.80774	-986.70679	345.13065	1089.33643	-992.88135	498.06689	1326.26599	-988.50458	543.15295	1161.35461	-992.22809	329.45703	1228.08228	-886.01538	446.37262	1360.8717	-1144.5791	412.55072	1162.09143	-1211.79333	401.74603	1039.28333	-1221.92554	402.16437	908.16174	-1223.58899	394.89072	788.57062	-1195.22864	373.15012	799.00195	-1246.49304	368.28824	714.22882	-1237.5802	459.96899	1352.22339	-828.2439	500.47391	1141.8949	-740.72449	545.51764	1040.12622	-722.35736	614.82288	922.44684	-724.71198	676.80432	848.02551	-766.74677	655.35803	830.95038	-720.42175	706.47192	778.9248	-733.35461	522.53345	923.86383	-1096.85754	498.19006	926.6886	-859.85931	355.85019	944.80194	-1066.0061	343.10248	959.67236	-917.21448	533.37451	625.50598	-1154.9751	606.58295	467.19479	-1108.4541	630.42419	279.21561	-1117.28833	696.70605	76.98518	-1088.5459	669.63165	31.02901	-1051.48853	849.0448	83.45118	-1064.47522	394.10971	639.54211	-832.90167	365.54575	463.03949	-872.96869	271.02219	293.04208	-876.35474	187.91692	93.35457	-932.35474	137.97185	74.0742	-983.26282	320.07553	30.15204	-952.08612	418.95938	1661.53247	-998.1723	NaN	NaN	NaN	NaN	NaN	NaN	NaN	NaN	NaN	NaN	NaN	NaN	NaN	NaN	NaN	NaN	NaN	NaN
